<svg width="100" height="100" viewBox="0 0 100 100" fill="none" xmlns="http://www.w3.org/2000/svg">
  
  <defs>
    <linearGradient id="brandGradient" x1="20%" y1="80%" x2="80%" y2="20%">
      <stop offset="0%" style="stop-color:#2563eb" /> <stop offset="100%" style="stop-color:#06b6d4" /> </linearGradient>

    <linearGradient id="goldTrailGradient" x1="10%" y1="90%" x2="90%" y2="10%">
       <stop offset="0%" style="stop-color:#ca8a04;stop-opacity:0" /> <stop offset="40%" style="stop-color:#eab308;stop-opacity:0.6" /> <stop offset="100%" style="stop-color:#fde047;stop-opacity:1" /> </linearGradient>
  </defs>

  <g transform="rotate(45 50 50)">
      <path 
        fill-rule="evenodd" 
        clip-rule="evenodd" 
        d="M50 5C55 25 75 45 95 50C75 55 55 75 50 95C45 75 25 55 5 50C25 45 45 25 50 5ZM50 25C52.5 35 65 47.5 75 50C65 52.5 52.5 65 50 75C47.5 65 35 52.5 25 50C35 47.5 47.5 35 50 25Z" 
        fill="url(#brandGradient)"
      />
  </g>

  <path 
    d="M 15 85 C 35 65, 60 40, 92 12 C 85 25, 65 45, 25 88 L 15 85 Z" 
    fill="url(#goldTrailGradient)"
  />
  
</svg>